<?xml version="1.0" encoding="UTF-8" standalone="no"?>
<!-- Generator: Adobe Illustrator 23.0.3, SVG Export Plug-In . SVG Version: 6.00 Build 0)  -->

<svg
   version="1.1"
   id="Layer_1"
   x="0px"
   y="0px"
   viewBox="0 0 865.49078 966.37366"
   xml:space="preserve"
   sodipodi:docname="favicon.svg"
   inkscape:version="1.1.1 (3bf5ae0d25, 2021-09-20)"
   width="865.49078"
   height="966.37366"
   xmlns:inkscape="http://www.inkscape.org/namespaces/inkscape"
   xmlns:sodipodi="http://sodipodi.sourceforge.net/DTD/sodipodi-0.dtd"
   xmlns="http://www.w3.org/2000/svg"
   xmlns:svg="http://www.w3.org/2000/svg"><defs
   id="defs73">
	
	
</defs><sodipodi:namedview
   id="namedview71"
   pagecolor="#ffffff"
   bordercolor="#666666"
   borderopacity="1.0"
   inkscape:pageshadow="2"
   inkscape:pageopacity="0.0"
   inkscape:pagecheckerboard="0"
   showgrid="false"
   inkscape:zoom="0.391"
   inkscape:cx="1560.1023"
   inkscape:cy="632.99233"
   inkscape:window-width="1920"
   inkscape:window-height="1016"
   inkscape:window-x="0"
   inkscape:window-y="0"
   inkscape:window-maximized="1"
   inkscape:current-layer="Layer_1"
   borderlayer="false" />
<style
   type="text/css"
   id="style2">
	.st0{fill:#28293D;}
	.st1{fill:#FFFEF1;}
	.st2{fill:#FFCB04;}
	.st3{fill:#391E2B;}
	.st4{fill:#F49519;}
	.st5{fill:#FFFFFF;}
	.st6{fill:#E6E6E6;}
	.st7{fill:none;}
	.st8{fill:#FEB115;}
	.st9{fill:#653E39;}
</style>

<g
   id="g66"
   transform="matrix(2.0780091,0,0,1.9681744,-1645.1598,-1362.5671)">
		<path
   class="st8"
   d="m 1161.2,1056.4 c -25.8,0 -58.4,-3.4 -83,-17.7 -25.3,-14.6 -31.9,-34.9 -33,-49.3 -1.2,-15.6 3.5,-27.6 3.7,-28.1 l 0.2,-0.5 0.3,-0.4 c 0.3,-0.4 8.4,-10.5 22.5,-17.3 13.1,-6.3 34,-10.7 59.2,3.9 v 0 c 46.8,27 74.2,98.2 75.4,101.2 l 1.7,4.4 -4.6,0.7 c -1.6,0.3 -19.2,3.1 -42.4,3.1 z m -105.4,-91.7 c -0.8,2.3 -4,12.3 -3,24.4 1.5,18.2 11.3,32.7 29.2,43 37.9,21.9 98.2,16.5 115.5,14.4 -6.8,-16.1 -32.3,-71 -70.2,-92.8 -17.9,-10.3 -35.3,-11.6 -51.9,-3.8 -10.9,5.2 -18,12.9 -19.6,14.8 z"
   id="path26" />
		<path
   class="st5"
   d="m 1097.1,927.7 c -10.2,0 -18.8,-2.7 -25.4,-5.8 -14.1,-6.7 -22.1,-16.8 -22.5,-17.3 l -0.3,-0.4 -0.2,-0.5 c -0.2,-0.5 -4.9,-12.5 -3.7,-28.1 1.1,-14.5 7.8,-34.8 33,-49.3 v 0 c 46.8,-27 122.1,-15.2 125.3,-14.7 l 4.6,0.7 -1.7,4.4 c -1.1,3 -28.6,74.2 -75.4,101.2 -12.3,7.3 -23.7,9.8 -33.7,9.8 z m -41.4,-27.4 c 1.6,1.9 8.6,9.6 19.7,14.8 16.5,7.8 34,6.5 51.9,-3.8 37.9,-21.9 63.4,-76.8 70.2,-92.8 -17.3,-2.1 -77.6,-7.5 -115.5,14.4 v 0 c -18,10.4 -27.8,25 -29.2,43.3 -1.1,12.1 2,21.8 2.9,24.1 z"
   id="path28"
   style="fill:#000000" />
		<path
   class="st5"
   d="m 999.9,876 -0.5,-0.1 c -0.5,-0.1 -13.3,-2 -26.2,-10.8 -12,-8.2 -26.2,-24.1 -26.2,-53.3 0,-54 47.9,-113.4 50,-115.9 l 3,-3.6 3,3.6 c 2,2.5 50,61.9 50,115.9 0,29.2 -14.3,45.1 -26.2,53.3 -12.9,8.8 -25.6,10.7 -26.2,10.8 z m 0,-171.4 c -10.5,13.9 -45.3,63.5 -45.3,107.2 0,20.8 7.7,36.6 22.9,47 10,6.8 20,9 22.4,9.5 2.4,-0.5 12.6,-2.7 22.6,-9.6 15,-10.4 22.7,-26.2 22.7,-46.8 -0.1,-43.9 -34.8,-93.3 -45.3,-107.3 z"
   id="path30"
   style="fill:#000000" />
		<path
   class="st5"
   d="m 902.7,928 c -9.9,0 -21.4,-2.6 -33.9,-9.8 v 0 C 822,891.2 794.6,820 793.4,817 l -1.7,-4.4 4.6,-0.7 c 3.2,-0.5 78.6,-12.3 125.3,14.7 25.3,14.6 31.9,34.9 33,49.3 1.2,15.6 -3.5,27.6 -3.7,28.1 l -0.2,0.5 -0.3,0.4 c -0.3,0.4 -8.4,10.5 -22.5,17.3 -6.4,3.1 -15,5.8 -25.2,5.8 z M 802.5,818.7 c 6.8,16.1 32.3,71 70.2,92.8 v 0 c 17.9,10.3 35.3,11.6 51.9,3.8 11,-5.2 18,-12.9 19.7,-14.8 0.8,-2.3 4,-12.3 3,-24.4 -1.5,-18.2 -11.3,-32.7 -29.2,-43 -38,-21.8 -98.3,-16.5 -115.6,-14.4 z"
   id="path32"
   style="fill:#000000" />
		<path
   class="st8"
   d="m 838.9,1056.7 c -23.1,0 -40.8,-2.8 -42.3,-3 l -4.6,-0.7 1.7,-4.4 c 1.1,-3 28.6,-74.2 75.4,-101.2 25.3,-14.6 46.2,-10.2 59.2,-3.9 14.1,6.7 22.1,16.8 22.5,17.3 l 0.3,0.4 0.2,0.5 c 0.2,0.5 4.9,12.5 3.7,28.1 -1.1,14.5 -7.8,34.8 -33,49.3 -24.7,14.1 -57.3,17.6 -83.1,17.6 z m -36.3,-9.9 c 17.3,2.1 77.6,7.5 115.5,-14.4 v 0 c 17.9,-10.3 27.7,-24.8 29.2,-43 1,-12.1 -2.2,-22.1 -3,-24.4 -1.6,-1.9 -8.6,-9.6 -19.7,-14.8 -16.5,-7.8 -34,-6.5 -51.9,3.8 -37.8,21.8 -63.3,76.7 -70.1,92.8 z"
   id="path34" />
		
		
		<g
   id="g46">
			<path
   class="st5"
   d="m 1045,1059 c -0.2,2.5 -0.6,5 -1,7.6 l -0.4,0.6 -43.7,-28.7 -43.5,28.9 c -0.1,-0.3 -0.1,-0.6 -0.1,-0.9 -0.4,-2.5 -0.7,-5.1 -1,-7.6 l 44.6,-29.6 z"
   id="path40"
   style="fill:#000000" />
			<path
   class="st5"
   d="m 1036.7,1095 c -0.8,2.5 -1.7,4.9 -2.7,7.4 l -34.2,-22.4 -33.6,22.4 c -0.9,-2.5 -1.8,-4.9 -2.7,-7.4 l 36.3,-24.1 z"
   id="path42"
   style="fill:#000000" />
			<path
   class="st5"
   d="m 1023.2,1127.5 c -1.1,2.4 -2.3,4.7 -3.4,6.9 l -20,-13.1 -19.5,13 c -1.1,-2.3 -2.3,-4.6 -3.4,-6.9 l 22.9,-15.2 z"
   id="path44"
   style="fill:#000000" />
		</g>
		<g
   id="g60">
			<circle
   class="st8"
   cx="907.59998"
   cy="773"
   r="10"
   id="circle48" />
			<circle
   class="st8"
   cx="815.5"
   cy="932.79999"
   r="10"
   id="circle50" />
			<circle
   class="st8"
   cx="907.90002"
   cy="1092.4"
   r="10"
   id="circle52" />
			<circle
   class="st8"
   cx="1092.4"
   cy="1092.3"
   r="10"
   id="circle54" />
			<circle
   class="st8"
   cx="1184.5"
   cy="932.5"
   r="10"
   id="circle56" />
			<circle
   class="st8"
   cx="1092.1"
   cy="772.79999"
   r="10"
   id="circle58" />
		</g>
		<path
   class="st8"
   d="m 1040.1,930.3 c -0.6,-10.7 -5.4,-20.5 -13.4,-27.7 -3.7,-3.3 -7.8,-5.8 -12.3,-7.5 1.1,-8.9 9.9,-13.1 10.3,-13.3 l -1.6,-3.5 -1.6,-3.5 c -4.8,2.2 -12.9,8.4 -14.6,18.2 -3,-0.5 -6.2,-0.7 -9.3,-0.5 -1.5,0.1 -2.9,0.3 -4.4,0.5 -1.7,-9.8 -9.8,-16 -14.6,-18.1 l -3.1,7 c 0.1,0 9.1,4.2 10.3,13.2 -16,6 -27,22 -26,40 0.6,10.7 5.4,20.5 13.4,27.7 7.4,6.6 16.8,10.2 26.7,10.2 0.8,0 1.6,0 2.4,-0.1 10.7,-0.6 20.5,-5.4 27.7,-13.4 7.2,-8.2 10.7,-18.5 10.1,-29.2 z m -15.8,24 c -5.8,6.5 -13.7,10.3 -22.4,10.9 -8.7,0.5 -17,-2.4 -23.5,-8.2 -6.5,-5.8 -10.3,-13.7 -10.9,-22.4 -1,-17.9 12.7,-33.3 30.6,-34.4 0.6,0 1.3,-0.1 1.9,-0.1 8,0 15.6,2.9 21.6,8.2 6.5,5.8 10.3,13.7 10.9,22.4 0.5,8.7 -2.4,17.1 -8.2,23.6 z"
   id="path62" />
		<path
   class="st8"
   d="m 1027.2,992.5 c -12.7,-11.2 -25.3,-15.5 -25.9,-15.7 l -1.2,-0.4 -1.2,0.4 c -0.5,0.2 -13.1,4.5 -25.9,15.7 -11.8,10.4 -25.9,28.8 -25.9,57.8 0,53.8 47.7,125.3 49.8,128.3 l 3.2,4.7 3.2,-4.7 c 2,-3 49.8,-74.5 49.8,-128.3 0,-29 -14.1,-47.4 -25.9,-57.8 z m 16.8,74.1 c -1.5,9.3 -4.1,18.9 -7.3,28.4 -0.8,2.5 -1.7,4.9 -2.7,7.4 -3.3,8.7 -7,17.2 -10.8,25.1 -1.1,2.4 -2.3,4.7 -3.4,6.9 -7.9,15.6 -15.5,28.3 -19.7,34.9 -4.2,-6.6 -11.9,-19.4 -19.8,-35.1 -1.1,-2.3 -2.3,-4.6 -3.4,-6.9 -3.8,-7.9 -7.5,-16.4 -10.8,-25.1 -0.9,-2.5 -1.8,-4.9 -2.7,-7.4 -3.1,-9.2 -5.7,-18.4 -7.2,-27.4 -0.1,-0.3 -0.1,-0.6 -0.1,-0.9 -0.4,-2.5 -0.7,-5.1 -1,-7.6 -0.3,-3 -0.4,-5.9 -0.4,-8.8 0,-20.8 7.8,-38.3 23.1,-51.9 9.4,-8.3 18.9,-12.6 22.2,-13.9 3.3,1.3 12.9,5.6 22.2,13.9 15.3,13.6 23,31 23,51.9 0,2.9 -0.1,5.8 -0.4,8.8 0,2.6 -0.4,5.2 -0.8,7.7 z"
   id="path64" />
	</g>
</svg>
